<svg width="111" height="156" viewBox="0 0 111 156" fill="none" xmlns="http://www.w3.org/2000/svg">
<path d="M55.0126 155.491L10.0254 143.002L0 30.5576H110.16L100.124 142.985L55.0126 155.491Z" fill="#264DE4"/>
<path d="M91.5324 135.826L100.108 39.7515H55.08V145.931L91.5324 135.826Z" fill="#2965F1"/>
<path d="M22.9829 81.4556L24.2187 95.2464H55.08V81.4556H22.9829ZM20.4991 53.5427L21.7526 67.3336H55.08V53.5427H20.4991ZM55.08 117.272L55.0196 117.288L39.6608 113.141L38.6789 102.142H24.8349L26.7669 123.796L55.0165 131.638L55.08 131.62V117.272Z" fill="#EBEBEB"/>
<path d="M25.9256 0H42.6282V6.98502H32.9106V13.97H42.629V20.9546H25.9256V0ZM45.9691 0H62.6721V6.07389H52.9541V7.28858H62.6721V21.2586H45.9696V14.8803H55.6875V13.6656H45.9687V0H45.9691ZM66.0131 0H82.716V6.07389H72.9981V7.28858H82.716V21.2586H66.0131V14.8803H75.731V13.6656H66.0135V0H66.0131Z" fill="black"/>
<path d="M87.089 81.4556L89.5784 53.5427H55.0325V67.3336H74.465L73.2101 81.4556H55.0325V95.2464H72.0144L70.4132 113.132L55.032 117.284V131.631L83.3042 123.796L83.5115 121.466L86.7527 85.1588L87.089 81.4556Z" fill="white"/>
</svg>
