<svg width="84" height="125" viewBox="0 0 84 125" fill="none" xmlns="http://www.w3.org/2000/svg">
<path d="M20.8336 125C32.3395 125 41.6669 115.673 41.6669 104.167V83.3333H20.8336C9.32764 83.3333 0.000244141 92.6606 0.000244141 104.167C0.000244141 115.673 9.32764 125 20.8336 125Z" fill="#0ACF83"/>
<path d="M0.000244141 62.5001C0.000244141 50.9941 9.32764 41.6667 20.8336 41.6667H41.6669V83.3334H20.8336C9.32764 83.3334 0.000244141 74.006 0.000244141 62.5001Z" fill="#A259FF"/>
<path d="M0.000244141 20.8333C0.000244141 9.3274 9.32764 0 20.8336 0H41.6669V41.6667H20.8336C9.32764 41.6667 0.000244141 32.3393 0.000244141 20.8333Z" fill="#F24E1E"/>
<path d="M41.667 0H62.5003C74.0063 0 83.3337 9.3274 83.3337 20.8333C83.3337 32.3393 74.0063 41.6667 62.5003 41.6667H41.667V0Z" fill="#FF7262"/>
<path d="M83.3337 62.5001C83.3337 74.006 74.0063 83.3334 62.5003 83.3334C50.9944 83.3334 41.667 74.006 41.667 62.5001C41.667 50.9941 50.9944 41.6667 62.5003 41.6667C74.0063 41.6667 83.3337 50.9941 83.3337 62.5001Z" fill="#1ABCFE"/>
</svg>
