<svg width="670" height="200" viewBox="0 0 670 200" fill="none" xmlns="http://www.w3.org/2000/svg">
<g clip-path="url(#clip0_2013_1301)">
<path d="M616.645 0.00113828H53.3847C51.3316 0.00113828 49.3031 0.00113828 47.2553 0.0111382C45.5412 0.0211382 43.8407 0.0501881 42.1101 0.074638C38.3505 0.114147 34.5997 0.409518 30.8903 0.958185C27.1861 1.5188 23.598 2.57571 20.2472 4.09317C16.9006 5.62348 13.8427 7.61195 11.1844 9.98646C8.51218 12.3543 6.28468 15.0912 4.58755 18.0919C2.88573 21.0866 1.70568 24.2958 1.08817 27.6085C0.464779 30.917 0.129328 34.2636 0.084825 37.6184C0.0328662 39.1514 0.0273791 40.6895 0 42.2227V157.794C0.0273791 159.346 0.0328662 160.85 0.084825 162.403C0.129342 165.758 0.464793 169.104 1.08817 172.413C1.70398 175.727 2.88409 178.938 4.58755 181.934C6.28391 184.925 8.51173 187.651 11.1844 190.006C13.8326 192.391 16.8925 194.38 20.2472 195.899C23.598 197.421 27.1857 198.484 30.8903 199.053C34.6003 199.597 38.3507 199.893 42.1101 199.937C43.8407 199.971 45.5412 199.99 47.2553 199.99C49.303 200 51.3317 200 53.3847 200H616.645C618.658 200 620.702 200 622.715 199.99C624.421 199.99 626.17 199.971 627.876 199.937C631.629 199.895 635.372 199.6 639.074 199.053C642.791 198.48 646.392 197.417 649.758 195.899C653.11 194.38 656.167 192.39 658.813 190.006C661.479 187.642 663.712 184.918 665.429 181.934C667.12 178.936 668.288 175.725 668.895 172.413C669.52 169.104 669.867 165.758 669.934 162.403C669.956 160.85 669.956 159.346 669.956 157.794C670 155.977 670 154.171 670 152.325V47.6816C670 45.8506 670 44.0342 669.956 42.2227C669.956 40.6895 669.956 39.1514 669.934 37.6182C669.867 34.2631 669.52 30.9172 668.895 27.6082C668.287 24.2975 667.118 21.0886 665.429 18.0917C661.973 12.0771 656.492 7.18124 649.758 4.09272C646.392 2.57897 642.791 1.52234 639.074 0.957735C635.373 0.406651 631.629 0.111177 627.876 0.073938C626.17 0.0495381 624.421 0.0202382 622.715 0.0104882C620.702 0.000488281 618.658 0.000488281 616.645 0.000488281V0.00113828Z" fill="#A6A6A6"/>
<path d="M47.3803 195.99C45.675 195.99 44.0108 195.971 42.3189 195.937C38.8139 195.896 35.317 195.622 31.8571 195.118C28.6309 194.62 25.5055 193.693 22.5842 192.368C19.6896 191.054 17.0495 189.331 14.765 187.265C12.4475 185.224 10.518 182.856 9.05309 180.256C7.57203 177.639 6.54706 174.833 6.01386 171.938C5.43805 168.826 5.12652 165.68 5.08194 162.526C5.04646 161.468 5 157.943 5 157.943V41.9936C5 41.9936 5.04948 38.5232 5.08222 37.5036C5.1249 34.3549 5.43463 31.2136 6.00871 28.1071C6.54289 25.2035 7.56866 22.3901 9.05051 19.7644C10.51 17.1659 12.4288 14.7964 14.7324 12.7476C17.0333 10.6793 19.6819 8.94758 22.5814 7.61547C25.4961 6.2948 28.6155 5.37445 31.8352 4.88525C35.3065 4.37612 38.8155 4.10086 42.3326 4.06177L47.383 4.00049H622.59L627.7 4.06423C631.185 4.10137 634.663 4.37418 638.102 4.88033C641.354 5.37566 644.506 6.30244 647.454 7.63018C653.263 10.3148 657.989 14.562 660.971 19.7766C662.429 22.3842 663.439 25.1746 663.967 28.0531C664.548 31.1852 664.873 34.3512 664.94 37.5257C664.956 38.9472 664.956 40.4741 664.956 41.9936C665 43.8759 665 45.6674 665 47.4737V152.522C665 154.345 665 156.125 664.956 157.919C664.956 159.551 664.956 161.046 664.934 162.585C664.869 165.703 664.549 168.813 663.977 171.889C663.455 174.805 662.436 177.632 660.955 180.271C659.48 182.843 657.561 185.19 655.271 187.226C652.984 189.303 650.339 191.036 647.438 192.358C644.498 193.694 641.351 194.624 638.102 195.118C634.642 195.625 631.145 195.899 627.64 195.937C626 195.971 624.284 195.99 622.617 195.99L616.55 196L47.3803 195.99Z" fill="black"/>
<path d="M147.987 101.505C148.04 97.3318 149.149 93.2399 151.209 89.6101C153.269 85.9803 156.214 82.9306 159.769 80.7448C157.511 77.519 154.531 74.8643 151.067 72.9915C147.603 71.1187 143.75 70.0795 139.814 69.9564C131.417 69.0751 123.278 74.9805 118.999 74.9805C114.638 74.9805 108.05 70.0439 100.957 70.1898C96.3682 70.3381 91.8965 71.6723 87.9771 74.0626C84.0577 76.4529 80.8243 79.8177 78.592 83.8292C68.922 100.571 76.1349 125.177 85.398 138.71C90.0325 145.336 95.4489 152.739 102.536 152.476C109.471 152.188 112.062 148.054 120.433 148.054C128.727 148.054 131.157 152.476 138.388 152.309C145.83 152.188 150.519 145.653 154.991 138.963C158.321 134.242 160.883 129.023 162.583 123.501C158.259 121.672 154.57 118.611 151.974 114.7C149.378 110.788 147.992 106.199 147.987 101.505V101.505Z" fill="white"/>
<path d="M134.328 61.0591C138.386 56.188 140.385 49.9271 139.901 43.606C133.702 44.2571 127.976 47.2199 123.863 51.904C121.852 54.1923 120.312 56.8545 119.331 59.7384C118.35 62.6222 117.947 65.6712 118.145 68.711C121.245 68.7429 124.313 68.0708 127.116 66.7454C129.919 65.4199 132.386 63.4757 134.328 61.0591Z" fill="white"/>
<path d="M247.653 135.701H223.986L218.303 152.484H208.278L230.695 90.3936H241.11L263.527 152.484H253.332L247.653 135.701ZM226.437 127.957H245.197L235.949 100.721H235.691L226.437 127.957Z" fill="white"/>
<path d="M311.94 129.851C311.94 143.918 304.411 152.956 293.049 152.956C290.17 153.107 287.308 152.444 284.789 151.043C282.27 149.642 280.196 147.561 278.806 145.036H278.591V167.458H269.299V107.214H278.293V114.743H278.464C279.919 112.231 282.027 110.16 284.565 108.751C287.103 107.341 289.976 106.647 292.878 106.74C304.367 106.74 311.94 115.822 311.94 129.851ZM302.39 129.851C302.39 120.686 297.653 114.66 290.427 114.66C283.327 114.66 278.552 120.813 278.552 129.851C278.552 138.972 283.327 145.08 290.427 145.08C297.653 145.08 302.39 139.099 302.39 129.851Z" fill="white"/>
<path d="M361.765 129.851C361.765 143.918 354.235 152.956 342.873 152.956C339.995 153.107 337.132 152.444 334.613 151.043C332.094 149.642 330.021 147.561 328.63 145.036H328.415V167.458H319.123V107.214H328.117V114.743H328.288C329.743 112.231 331.851 110.16 334.389 108.751C336.928 107.341 339.8 106.647 342.702 106.74C354.191 106.74 361.765 115.822 361.765 129.851ZM352.214 129.851C352.214 120.686 347.477 114.66 340.251 114.66C333.151 114.66 328.376 120.813 328.376 129.851C328.376 138.972 333.151 145.08 340.251 145.08C347.477 145.08 352.214 139.099 352.214 129.851H352.214Z" fill="white"/>
<path d="M394.694 135.184C395.383 141.341 401.364 145.384 409.538 145.384C417.37 145.384 423.005 141.341 423.005 135.789C423.005 130.97 419.607 128.084 411.56 126.106L403.513 124.168C392.112 121.414 386.819 116.082 386.819 107.43C386.819 96.7168 396.154 89.3584 409.411 89.3584C422.531 89.3584 431.526 96.7168 431.828 107.43H422.448C421.887 101.233 416.765 97.4932 409.279 97.4932C401.794 97.4932 396.672 101.277 396.672 106.785C396.672 111.175 399.943 113.758 407.946 115.735L414.787 117.415C427.526 120.428 432.819 125.545 432.819 134.627C432.819 146.243 423.566 153.518 408.85 153.518C395.08 153.518 385.783 146.414 385.183 135.183L394.694 135.184Z" fill="white"/>
<path d="M452.873 96.5059V107.219H461.481V114.577H452.873V139.533C452.873 143.41 454.597 145.217 458.381 145.217C459.403 145.199 460.423 145.127 461.437 145.002V152.316C459.736 152.634 458.007 152.778 456.276 152.746C447.111 152.746 443.537 149.304 443.537 140.524V114.577H436.955V107.219H443.537V96.5059H452.873Z" fill="white"/>
<path d="M466.467 129.855C466.467 115.612 474.856 106.662 487.937 106.662C501.062 106.662 509.411 115.612 509.411 129.855C509.411 144.138 501.106 153.049 487.937 153.049C474.772 153.049 466.467 144.138 466.467 129.855ZM499.944 129.855C499.944 120.085 495.466 114.318 487.937 114.318C480.407 114.318 475.935 120.129 475.935 129.855C475.935 139.665 480.407 145.388 487.937 145.388C495.466 145.388 499.943 139.665 499.943 129.855H499.944Z" fill="white"/>
<path d="M517.072 107.214H525.935V114.919H526.15C526.749 112.512 528.159 110.385 530.142 108.896C532.125 107.407 534.56 106.645 537.038 106.74C538.109 106.736 539.177 106.852 540.222 107.087V115.778C538.87 115.365 537.46 115.175 536.047 115.216C534.697 115.162 533.351 115.4 532.102 115.914C530.853 116.429 529.73 117.207 528.81 118.197C527.89 119.186 527.195 120.363 526.773 121.646C526.351 122.93 526.211 124.289 526.364 125.631V152.482H517.072L517.072 107.214Z" fill="white"/>
<path d="M583.063 139.191C581.813 147.409 573.811 153.049 563.571 153.049C550.402 153.049 542.229 144.226 542.229 130.07C542.229 115.871 550.446 106.662 563.181 106.662C575.705 106.662 583.581 115.266 583.581 128.991V132.175H551.608V132.736C551.461 134.402 551.669 136.081 552.22 137.66C552.771 139.239 553.652 140.683 554.804 141.896C555.955 143.108 557.352 144.062 558.901 144.694C560.449 145.325 562.115 145.62 563.786 145.559C565.982 145.764 568.186 145.256 570.069 144.109C571.953 142.961 573.416 141.237 574.24 139.191L583.063 139.191ZM551.652 125.681H574.284C574.368 124.183 574.14 122.684 573.617 121.278C573.094 119.872 572.285 118.589 571.243 117.51C570.2 116.431 568.946 115.58 567.558 115.008C566.171 114.437 564.681 114.159 563.181 114.191C561.668 114.182 560.168 114.473 558.767 115.047C557.367 115.621 556.094 116.466 555.023 117.534C553.951 118.602 553.101 119.872 552.523 121.27C551.944 122.669 551.648 124.168 551.652 125.681V125.681Z" fill="white"/>
<path d="M225.273 43.6593C227.221 43.5195 229.176 43.8138 230.997 44.521C232.817 45.2282 234.458 46.3306 235.801 47.7487C237.144 49.1668 238.155 50.8653 238.762 52.7217C239.369 54.578 239.557 56.546 239.311 58.4835C239.311 68.0148 234.16 73.4935 225.273 73.4935H214.497V43.6593H225.273ZM219.131 69.2743H224.756C226.148 69.3575 227.541 69.1293 228.833 68.6062C230.126 68.0832 231.286 67.2784 232.228 66.2506C233.171 65.2228 233.872 63.9977 234.282 62.6646C234.691 61.3315 234.798 59.924 234.594 58.5443C234.783 57.1702 234.665 55.7713 234.25 54.448C233.834 53.1247 233.131 51.9097 232.191 50.89C231.25 49.8704 230.096 49.0713 228.811 48.5501C227.525 48.029 226.14 47.7985 224.756 47.8754H219.131V69.2743Z" fill="white"/>
<path d="M244.546 62.2302C244.404 60.7506 244.573 59.2578 245.043 57.8475C245.512 56.4371 246.27 55.1404 247.27 54.0405C248.27 52.9406 249.488 52.0617 250.848 51.4604C252.207 50.859 253.677 50.5483 255.163 50.5483C256.65 50.5483 258.12 50.859 259.479 51.4604C260.838 52.0617 262.057 52.9406 263.056 54.0405C264.056 55.1404 264.815 56.4371 265.284 57.8475C265.753 59.2578 265.922 60.7506 265.781 62.2302C265.925 63.7113 265.758 65.2063 265.29 66.6189C264.822 68.0315 264.064 69.3306 263.064 70.4327C262.064 71.5347 260.844 72.4154 259.484 73.0181C258.123 73.6208 256.651 73.9321 255.163 73.9321C253.675 73.9321 252.203 73.6208 250.843 73.0181C249.482 72.4154 248.263 71.5347 247.263 70.4327C246.263 69.3306 245.505 68.0315 245.037 66.6189C244.569 65.2063 244.401 63.7113 244.546 62.2302V62.2302ZM261.211 62.2302C261.211 57.3499 259.018 54.4959 255.171 54.4959C251.308 54.4959 249.136 57.3499 249.136 62.2303C249.136 67.1497 251.308 69.9817 255.171 69.9817C259.018 69.9817 261.211 67.1301 261.211 62.2302H261.211Z" fill="white"/>
<path d="M294.009 73.4936H289.399L284.746 56.9116H284.394L279.761 73.4936H275.195L268.989 50.979H273.496L277.529 68.159H277.861L282.49 50.979H286.753L291.382 68.159H291.733L295.747 50.979H300.19L294.009 73.4936Z" fill="white"/>
<path d="M305.41 50.9773H309.687V54.5539H310.019C310.582 53.2693 311.532 52.1925 312.737 51.4734C313.941 50.7544 315.34 50.429 316.738 50.5427C317.833 50.4603 318.933 50.6255 319.956 51.026C320.979 51.4264 321.899 52.052 322.647 52.8562C323.396 53.6604 323.954 54.6227 324.28 55.6718C324.606 56.7209 324.692 57.8299 324.531 58.9167V73.4917H320.087V60.0325C320.087 56.4143 318.515 54.615 315.229 54.615C314.485 54.5803 313.743 54.7069 313.052 54.9861C312.362 55.2652 311.74 55.6903 311.23 56.2323C310.719 56.7742 310.332 57.4201 310.094 58.1258C309.856 58.8314 309.774 59.5801 309.853 60.3205V73.4919H305.41L305.41 50.9773Z" fill="white"/>
<path d="M331.611 42.1899H336.054V73.4936H331.611V42.1899Z" fill="white"/>
<path d="M342.231 62.2228C342.09 60.7431 342.259 59.2502 342.728 57.8398C343.198 56.4294 343.956 55.1327 344.956 54.0327C345.956 52.9328 347.175 52.054 348.534 51.4526C349.893 50.8512 351.363 50.5405 352.85 50.5405C354.336 50.5405 355.806 50.8512 357.166 51.4526C358.525 52.054 359.744 52.9328 360.744 54.0327C361.743 55.1327 362.502 56.4294 362.972 57.8398C363.441 59.2502 363.61 60.7431 363.469 62.2228C363.613 63.704 363.445 65.1989 362.977 66.6116C362.509 68.0242 361.751 69.3232 360.751 70.4253C359.751 71.5273 358.531 72.4079 357.17 73.0106C355.81 73.6132 354.338 73.9246 352.85 73.9246C351.362 73.9246 349.89 73.6132 348.529 73.0106C347.169 72.4079 345.949 71.5273 344.949 70.4253C343.949 69.3232 343.191 68.0242 342.722 66.6116C342.254 65.1989 342.087 63.704 342.231 62.2228V62.2228ZM358.896 62.2228C358.896 57.3425 356.704 54.4885 352.856 54.4885C348.994 54.4885 346.821 57.3425 346.821 62.2229C346.821 67.1423 348.994 69.9743 352.856 69.9743C356.704 69.9743 358.896 67.1227 358.896 62.2228H358.896Z" fill="white"/>
<path d="M368.147 67.1303C368.147 63.0776 371.164 60.7412 376.521 60.4091L382.619 60.0576V58.1142C382.619 55.7363 381.047 54.3935 378.01 54.3935C375.53 54.3935 373.811 55.3042 373.318 56.896H369.016C369.47 53.0288 373.108 50.5483 378.215 50.5483C383.86 50.5483 387.043 53.3583 387.043 58.1142V73.4975H382.766V70.3335H382.414C381.701 71.4685 380.699 72.3937 379.511 73.0148C378.322 73.6358 376.991 73.9304 375.652 73.8685C374.706 73.9668 373.751 73.866 372.847 73.5725C371.944 73.279 371.111 72.7994 370.404 72.1645C369.697 71.5297 369.131 70.7537 368.742 69.8866C368.353 69.0195 368.15 68.0806 368.147 67.1303V67.1303ZM382.619 65.2065V63.3242L377.121 63.6757C374.021 63.8832 372.614 64.9379 372.614 66.9228C372.614 68.9491 374.372 70.1283 376.789 70.1283C377.498 70.2 378.213 70.1285 378.893 69.9181C379.573 69.7076 380.204 69.3625 380.748 68.9033C381.292 68.4441 381.738 67.8802 382.059 67.2451C382.381 66.61 382.571 65.9167 382.619 65.2065V65.2065Z" fill="white"/>
<path d="M392.883 62.2266C392.883 55.1124 396.54 50.6055 402.229 50.6055C403.636 50.5407 405.032 50.8777 406.255 51.5772C407.477 52.2767 408.476 53.3097 409.133 54.5555H409.465V42.1899H413.908V73.4936H409.65V69.9365H409.299C408.591 71.1739 407.558 72.1941 406.312 72.8865C405.065 73.5789 403.653 73.9172 402.229 73.8647C396.501 73.8649 392.883 69.358 392.883 62.2266ZM397.473 62.2266C397.473 67.002 399.724 69.8756 403.489 69.8756C407.234 69.8756 409.548 66.9606 409.548 62.2462C409.548 57.5538 407.209 54.5972 403.489 54.5972C399.748 54.5972 397.473 57.4903 397.473 62.2266H397.473Z" fill="white"/>
<path d="M432.292 62.2302C432.151 60.7506 432.32 59.2578 432.789 57.8475C433.258 56.4371 434.017 55.1404 435.017 54.0405C436.016 52.9406 437.235 52.0617 438.594 51.4604C439.954 50.859 441.424 50.5483 442.91 50.5483C444.396 50.5483 445.866 50.859 447.225 51.4604C448.585 52.0617 449.803 52.9406 450.803 54.0405C451.803 55.1404 452.561 56.4371 453.031 57.8475C453.5 59.2578 453.669 60.7506 453.528 62.2302C453.672 63.7113 453.505 65.2063 453.037 66.6189C452.569 68.0315 451.81 69.3306 450.81 70.4327C449.81 71.5347 448.591 72.4154 447.23 73.0181C445.87 73.6208 444.398 73.9321 442.91 73.9321C441.422 73.9321 439.95 73.6208 438.589 73.0181C437.229 72.4154 436.009 71.5347 435.009 70.4327C434.009 69.3306 433.251 68.0315 432.783 66.6189C432.315 65.2063 432.148 63.7113 432.292 62.2302V62.2302ZM448.957 62.2302C448.957 57.3499 446.765 54.4959 442.917 54.4959C439.055 54.4959 436.882 57.3499 436.882 62.2303C436.882 67.1497 439.055 69.9817 442.917 69.9817C446.765 69.9817 448.957 67.1301 448.957 62.2302Z" fill="white"/>
<path d="M459.49 50.9773H463.767V54.5539H464.099C464.662 53.2693 465.612 52.1925 466.817 51.4734C468.021 50.7544 469.42 50.429 470.818 50.5427C471.913 50.4603 473.013 50.6255 474.036 51.026C475.059 51.4264 475.979 52.052 476.727 52.8562C477.476 53.6604 478.034 54.6227 478.36 55.6718C478.686 56.7209 478.771 57.8299 478.611 58.9167V73.4917H474.167V60.0325C474.167 56.4143 472.595 54.615 469.309 54.615C468.565 54.5803 467.823 54.7069 467.132 54.9861C466.442 55.2652 465.82 55.6903 465.31 56.2323C464.799 56.7742 464.412 57.4201 464.174 58.1258C463.936 58.8314 463.854 59.5801 463.933 60.3205V73.4919H459.49V50.9773Z" fill="white"/>
<path d="M503.718 45.3735V51.0815H508.596V54.8242H503.718V66.4014C503.718 68.7598 504.689 69.7925 506.901 69.7925C507.468 69.7907 508.033 69.7564 508.596 69.6899V73.3911C507.798 73.5338 506.989 73.6098 506.179 73.6181C501.237 73.6181 499.27 71.8798 499.27 67.539V54.824H495.695V51.0813H499.27V45.3735H503.718Z" fill="white"/>
<path d="M514.665 42.1899H519.069V54.5972H519.421C520.012 53.3006 520.988 52.2176 522.216 51.4959C523.445 50.7742 524.866 50.4487 526.286 50.564C527.376 50.5047 528.465 50.6866 529.477 51.0968C530.488 51.5071 531.396 52.1354 532.137 52.9371C532.878 53.7388 533.432 54.6941 533.761 55.7347C534.09 56.7754 534.185 57.8758 534.04 58.9575V73.4937H529.592V60.0537C529.592 56.4575 527.917 54.6362 524.778 54.6362C524.014 54.5736 523.246 54.6785 522.527 54.9438C521.808 55.2091 521.156 55.6282 520.616 56.1719C520.076 56.7156 519.661 57.3707 519.401 58.0914C519.14 58.8121 519.041 59.5809 519.109 60.3442V73.4936H514.665L514.665 42.1899Z" fill="white"/>
<path d="M559.949 67.411C559.345 69.4687 558.037 71.2486 556.253 72.4394C554.47 73.6301 552.325 74.1559 550.193 73.9247C548.709 73.9638 547.235 73.6797 545.873 73.0921C544.51 72.5044 543.292 71.6273 542.302 70.5216C541.313 69.4159 540.576 68.1082 540.142 66.689C539.709 65.2699 539.589 63.7735 539.792 62.3036C539.595 60.8292 539.716 59.3295 540.149 57.9062C540.581 56.4828 541.314 55.169 542.299 54.0536C543.283 52.9382 544.496 52.0474 545.854 51.4413C547.213 50.8353 548.686 50.5282 550.173 50.5409C556.438 50.5409 560.217 54.8209 560.217 61.8909V63.4414H544.319V63.6904C544.249 64.5166 544.353 65.3482 544.624 66.132C544.894 66.9157 545.326 67.6343 545.89 68.2416C546.455 68.8488 547.14 69.3314 547.902 69.6584C548.664 69.9854 549.486 70.1496 550.315 70.1404C551.378 70.268 552.454 70.0766 553.408 69.5905C554.362 69.1045 555.15 68.3458 555.671 67.4109L559.949 67.411ZM544.319 60.1552H555.691C555.747 59.3995 555.644 58.6405 555.389 57.9269C555.134 57.2133 554.733 56.5609 554.211 56.0116C553.689 55.4624 553.058 55.0283 552.359 54.7375C551.659 54.4466 550.906 54.3053 550.149 54.3227C549.38 54.313 548.617 54.4573 547.906 54.747C547.194 55.0367 546.547 55.466 546.004 56.0096C545.46 56.5532 545.031 57.2 544.742 57.912C544.453 58.624 544.309 59.3867 544.319 60.1552H544.319Z" fill="white"/>
</g>
<defs>
<clipPath id="clip0_2013_1301">
<rect width="670" height="200" fill="white"/>
</clipPath>
</defs>
</svg>
