<svg width="599" height="200" viewBox="0 0 599 200" fill="none" xmlns="http://www.w3.org/2000/svg">
<g clip-path="url(#clip0_3_106456)">
<path d="M550.674 0.00065H47.6734C45.8399 0.00065 44.0284 0.00065 42.1997 0.01065C40.669 0.02065 39.1504 0.0497 37.605 0.07415C34.2476 0.113659 30.898 0.409031 27.5855 0.9577C24.2776 1.51831 21.0734 2.57523 18.0811 4.0927C15.0925 5.62301 12.3617 7.61149 9.98785 9.986C7.60151 12.3538 5.61232 15.0907 4.09675 18.0914C2.577 21.0862 1.5232 24.2953 0.97175 27.6081C0.415055 30.9166 0.115492 34.2633 0.07575 37.618C0.02935 39.1511 0.02445 40.6891 0 42.2223V157.794C0.02445 159.346 0.02935 160.85 0.07575 162.403C0.115504 165.758 0.415067 169.104 0.97175 172.413C1.52168 175.727 2.57554 178.938 4.09675 181.934C5.61163 184.925 7.6011 187.651 9.98785 190.006C12.3527 192.391 15.0853 194.381 18.0811 195.899C21.0733 197.421 24.2773 198.484 27.5855 199.053C30.8986 199.597 34.2478 199.893 37.605 199.937C39.1504 199.971 40.669 199.991 42.1997 199.991C44.0284 200.001 45.84 200.001 47.6734 200.001H550.674C552.471 200.001 554.297 200.001 556.094 199.991C557.617 199.991 559.18 199.971 560.703 199.937C564.054 199.895 567.397 199.6 570.703 199.053C574.022 198.48 577.238 197.417 580.244 195.899C583.237 194.38 585.967 192.39 588.33 190.006C590.711 187.642 592.705 184.918 594.238 181.934C595.748 178.936 596.792 175.725 597.334 172.413C597.891 169.104 598.202 165.758 598.262 162.403C598.281 160.85 598.281 159.346 598.281 157.794C598.32 155.977 598.32 154.171 598.32 152.325V47.6813C598.32 45.8502 598.32 44.0338 598.281 42.2223C598.281 40.6891 598.281 39.1511 598.262 37.6179C598.202 34.2628 597.891 30.9168 597.334 27.6079C596.79 24.2971 595.747 21.0882 594.238 18.0912C591.152 12.0766 586.258 7.18078 580.244 4.09225C577.238 2.57849 574.022 1.52185 570.703 0.95725C567.398 0.406164 564.054 0.110689 560.703 0.07345C559.18 0.04905 557.617 0.01975 556.094 0.01C554.297 0 552.471 0 550.674 0V0.00065Z" fill="#A6A6A6"/>
<path d="M42.2243 195.625C40.7009 195.625 39.2143 195.605 37.7029 195.572C34.5718 195.531 31.448 195.258 28.3572 194.756C25.4751 194.26 22.6832 193.336 20.0735 192.017C17.4877 190.708 15.1292 188.991 13.0885 186.934C11.0182 184.9 9.29457 182.541 7.98593 179.951C6.66288 177.344 5.74725 174.549 5.27093 171.665C4.75656 168.566 4.47826 165.432 4.43843 162.29C4.40673 161.236 4.36523 157.725 4.36523 157.725V42.2217C4.36523 42.2217 4.40943 38.7646 4.43868 37.749C4.47681 34.6124 4.7535 31.4833 5.26633 28.3887C5.74353 25.4963 6.65987 22.6937 7.98364 20.0781C9.28746 17.4897 11.0015 15.1293 13.0593 13.0884C15.1149 11.0281 17.4808 9.30302 20.071 7.97605C22.6748 6.66047 25.4614 5.74366 28.3376 5.25635C31.4386 4.74918 34.5732 4.47498 37.7152 4.43605L42.2268 4.375H556.07L560.635 4.4385C563.748 4.4755 566.855 4.74725 569.927 5.25145C572.832 5.74488 575.648 6.66808 578.282 7.9907C583.471 10.6649 587.693 14.8958 590.357 20.0904C591.659 22.6879 592.561 25.4675 593.033 28.3349C593.552 31.455 593.842 34.6087 593.902 37.771C593.916 39.187 593.916 40.708 593.916 42.2217C593.956 44.0967 593.956 45.8814 593.956 47.6806V152.324C593.956 154.141 593.956 155.913 593.916 157.7C593.916 159.326 593.916 160.816 593.897 162.348C593.838 165.454 593.553 168.552 593.042 171.616C592.576 174.521 591.665 177.338 590.342 179.966C589.024 182.528 587.31 184.866 585.264 186.895C583.221 188.963 580.859 190.69 578.267 192.007C575.641 193.337 572.829 194.264 569.927 194.756C566.836 195.261 563.712 195.533 560.581 195.572C559.117 195.605 557.583 195.625 556.094 195.625L550.674 195.635L42.2243 195.625Z" fill="black"/>
<path d="M123.844 101.503C123.898 97.3293 125.007 93.2374 127.067 89.6077C129.127 85.9779 132.072 82.9282 135.627 80.7423C133.369 77.5165 130.389 74.8618 126.925 72.9891C123.461 71.1163 119.607 70.0771 115.671 69.9539C107.275 69.0726 99.1355 74.9781 94.857 74.9781C90.4956 74.9781 83.9081 70.0414 76.8145 70.1874C72.2261 70.3356 67.7544 71.6699 63.835 74.0602C59.9156 76.4505 56.6822 79.8153 54.4499 83.8267C44.7799 100.569 51.9928 125.174 61.2559 138.707C65.8904 145.334 71.3068 152.736 78.394 152.474C85.3293 152.186 87.9195 148.051 96.291 148.051C104.585 148.051 107.015 152.474 114.246 152.307C121.688 152.186 126.377 145.651 130.849 138.961C134.178 134.239 136.741 129.021 138.441 123.498C134.117 121.67 130.428 118.609 127.832 114.697C125.236 110.786 123.85 106.197 123.844 101.503Z" fill="white"/>
<path d="M110.186 61.0566C114.244 56.1856 116.243 49.9247 115.759 43.6035C109.56 44.2546 103.834 47.2174 99.7211 51.9016C97.7104 54.1899 96.1704 56.8521 95.1892 59.7359C94.208 62.6198 93.8047 65.6687 94.0025 68.7085C97.1032 68.7404 100.171 68.0684 102.974 66.7429C105.777 65.4175 108.243 63.4732 110.186 61.0566Z" fill="white"/>
<path d="M211.511 135.698H187.844L182.161 152.481H172.136L194.553 90.3906H204.968L227.385 152.481H217.19L211.511 135.698ZM190.295 127.954H209.055L199.807 100.718H199.549L190.295 127.954Z" fill="white"/>
<path d="M275.798 129.847C275.798 143.915 268.269 152.953 256.907 152.953C254.029 153.103 251.166 152.44 248.647 151.04C246.128 149.639 244.055 147.557 242.664 145.033H242.449V167.455H233.157V107.211H242.151V114.74H242.322C243.777 112.227 245.885 110.157 248.424 108.747C250.962 107.338 253.834 106.643 256.736 106.737C268.225 106.737 275.798 115.819 275.798 129.847ZM266.248 129.847C266.248 120.682 261.511 114.657 254.285 114.657C247.185 114.657 242.41 120.809 242.41 129.847C242.41 138.968 247.185 145.077 254.285 145.077C261.511 145.077 266.248 139.095 266.248 129.847Z" fill="white"/>
<path d="M325.623 129.847C325.623 143.915 318.093 152.953 306.731 152.953C303.853 153.103 300.99 152.44 298.471 151.04C295.952 149.639 293.879 147.557 292.488 145.033H292.273V167.455H282.981V107.21H291.975V114.74H292.146C293.601 112.227 295.709 110.156 298.248 108.747C300.786 107.338 303.658 106.643 306.56 106.737C318.049 106.737 325.623 115.819 325.623 129.847ZM316.072 129.847C316.072 120.682 311.336 114.657 304.109 114.657C297.009 114.657 292.234 120.809 292.234 129.847C292.234 138.968 297.009 145.077 304.109 145.077C311.336 145.077 316.072 139.095 316.072 129.847H316.072Z" fill="white"/>
<path d="M358.552 135.181C359.241 141.338 365.222 145.381 373.396 145.381C381.228 145.381 386.863 141.338 386.863 135.786C386.863 130.967 383.464 128.081 375.418 126.104L367.371 124.165C355.969 121.411 350.676 116.079 350.676 107.427C350.676 96.7139 360.012 89.3555 373.269 89.3555C386.389 89.3555 395.383 96.7139 395.686 107.427H386.306C385.745 101.23 380.623 97.4903 373.137 97.4903C365.652 97.4903 360.53 101.274 360.53 106.782C360.53 111.172 363.801 113.755 371.804 115.732L378.645 117.412C391.384 120.425 396.677 125.542 396.677 134.624C396.677 146.24 387.424 153.515 372.708 153.515C358.938 153.515 349.641 146.411 349.041 135.18L358.552 135.181Z" fill="white"/>
<path d="M416.731 96.5029V107.216H425.339V114.574H416.731V139.53C416.731 143.407 418.455 145.214 422.239 145.214C423.261 145.196 424.281 145.124 425.295 144.999V152.313C423.594 152.631 421.865 152.775 420.134 152.743C410.969 152.743 407.395 149.301 407.395 140.521V114.574H400.813V107.216H407.395V96.5029H416.731Z" fill="white"/>
<path d="M430.325 129.853C430.325 115.609 438.713 106.659 451.794 106.659C464.919 106.659 473.269 115.609 473.269 129.853C473.269 144.135 464.963 153.046 451.794 153.046C438.63 153.046 430.325 144.135 430.325 129.853ZM463.801 129.853C463.801 120.082 459.324 114.315 451.794 114.315C444.265 114.315 439.792 120.126 439.792 129.853C439.792 139.662 444.265 145.385 451.794 145.385C459.324 145.385 463.801 139.662 463.801 129.853H463.801Z" fill="white"/>
<path d="M480.93 107.21H489.793V114.915H490.008C490.607 112.509 492.017 110.382 494 108.893C495.983 107.403 498.418 106.642 500.896 106.736C501.967 106.733 503.035 106.849 504.08 107.083V115.774C502.728 115.361 501.318 115.172 499.905 115.213C498.555 115.158 497.209 115.396 495.96 115.911C494.711 116.425 493.588 117.204 492.668 118.193C491.748 119.183 491.053 120.359 490.631 121.643C490.209 122.926 490.069 124.286 490.222 125.628V152.479H480.93L480.93 107.21Z" fill="white"/>
<path d="M546.921 139.188C545.671 147.406 537.668 153.046 527.429 153.046C514.26 153.046 506.086 144.223 506.086 130.067C506.086 115.868 514.304 106.659 527.039 106.659C539.563 106.659 547.439 115.263 547.439 128.988V132.172H515.466V132.733C515.319 134.399 515.527 136.078 516.078 137.657C516.629 139.236 517.51 140.68 518.661 141.893C519.813 143.106 521.21 144.059 522.759 144.691C524.307 145.322 525.973 145.617 527.644 145.556C529.84 145.761 532.043 145.253 533.927 144.106C535.811 142.958 537.273 141.234 538.098 139.188L546.921 139.188ZM515.51 125.678H538.142C538.225 124.18 537.998 122.681 537.475 121.275C536.952 119.869 536.143 118.586 535.101 117.507C534.058 116.428 532.804 115.577 531.416 115.005C530.029 114.434 528.539 114.156 527.039 114.188C525.525 114.179 524.025 114.47 522.625 115.044C521.225 115.618 519.952 116.463 518.88 117.531C517.809 118.599 516.959 119.869 516.381 121.267C515.802 122.666 515.506 124.165 515.51 125.678V125.678Z" fill="white"/>
<path d="M189.131 43.6569C191.079 43.5171 193.034 43.8114 194.854 44.5186C196.675 45.2257 198.316 46.3281 199.659 47.7463C201.002 49.1644 202.013 50.8629 202.62 52.7192C203.227 54.5756 203.415 56.5435 203.169 58.4811C203.169 68.0123 198.018 73.4911 189.131 73.4911H178.354V43.6569H189.131ZM182.988 69.2719H188.613C190.005 69.3551 191.398 69.1269 192.691 68.6038C193.984 68.0807 195.144 67.276 196.086 66.2482C197.028 65.2203 197.73 63.9953 198.139 62.6622C198.548 61.3291 198.655 59.9215 198.452 58.5419C198.641 57.1677 198.523 55.7689 198.107 54.4456C197.692 53.1222 196.989 51.9072 196.048 50.8876C195.108 49.8679 193.954 49.0689 192.668 48.5477C191.383 48.0265 189.998 47.7961 188.613 47.873H182.988V69.2719Z" fill="white"/>
<path d="M208.403 62.2278C208.262 60.7482 208.431 59.2554 208.9 57.845C209.369 56.4347 210.128 55.138 211.128 54.038C212.128 52.9381 213.346 52.0593 214.705 51.4579C216.065 50.8565 217.535 50.5459 219.021 50.5459C220.507 50.5459 221.977 50.8565 223.336 51.4579C224.696 52.0593 225.914 52.9381 226.914 54.038C227.914 55.138 228.672 56.4347 229.142 57.845C229.611 59.2554 229.78 60.7482 229.639 62.2278C229.783 63.7089 229.616 65.2038 229.148 66.6164C228.68 68.0291 227.921 69.3281 226.921 70.4302C225.921 71.5323 224.702 72.413 223.341 73.0156C221.981 73.6183 220.509 73.9297 219.021 73.9297C217.533 73.9297 216.061 73.6183 214.701 73.0156C213.34 72.413 212.12 71.5323 211.12 70.4302C210.121 69.3281 209.362 68.0291 208.894 66.6164C208.426 65.2038 208.259 63.7089 208.403 62.2278ZM225.068 62.2278C225.068 57.3474 222.876 54.4934 219.028 54.4934C215.166 54.4934 212.993 57.3474 212.993 62.2278C212.993 67.1473 215.166 69.9793 219.028 69.9793C222.876 69.9792 225.068 67.1277 225.068 62.2278H225.068Z" fill="white"/>
<path d="M257.866 73.4912H253.257L248.604 56.9092H248.252L243.618 73.4912H239.053L232.847 50.9766H237.354L241.387 68.1566H241.719L246.348 50.9766H250.61L255.239 68.1566H255.591L259.605 50.9766H264.048L257.866 73.4912Z" fill="white"/>
<path d="M269.268 50.9743H273.545V54.551H273.877C274.44 53.2664 275.39 52.1895 276.595 51.4705C277.799 50.7515 279.198 50.4261 280.596 50.5397C281.691 50.4574 282.791 50.6226 283.814 51.023C284.837 51.4235 285.757 52.049 286.505 52.8533C287.254 53.6575 287.812 54.6198 288.138 55.6689C288.464 56.718 288.549 57.827 288.389 58.9137V73.4887H283.945V60.0295C283.945 56.4114 282.373 54.612 279.087 54.612C278.343 54.5774 277.601 54.704 276.91 54.9831C276.22 55.2623 275.598 55.6874 275.088 56.2293C274.577 56.7713 274.19 57.4172 273.952 58.1228C273.714 58.8285 273.632 59.5772 273.711 60.3176V73.489H269.268L269.268 50.9743Z" fill="white"/>
<path d="M295.469 42.1875H299.912V73.4912H295.469V42.1875Z" fill="white"/>
<path d="M306.089 62.2204C305.947 60.7407 306.117 59.2478 306.586 57.8374C307.055 56.427 307.814 55.1302 308.814 54.0303C309.814 52.9304 311.032 52.0515 312.392 51.4501C313.751 50.8487 315.221 50.5381 316.708 50.5381C318.194 50.5381 319.664 50.8487 321.023 51.4501C322.383 52.0515 323.601 52.9304 324.601 54.0303C325.601 55.1302 326.36 56.427 326.829 57.8374C327.298 59.2478 327.468 60.7407 327.326 62.2204C327.47 63.7016 327.303 65.1965 326.835 66.6091C326.367 68.0217 325.608 69.3208 324.608 70.4228C323.608 71.5249 322.389 72.4055 321.028 73.0082C319.667 73.6108 318.196 73.9221 316.708 73.9221C315.219 73.9221 313.748 73.6108 312.387 73.0082C311.026 72.4055 309.807 71.5249 308.807 70.4228C307.807 69.3208 307.048 68.0217 306.58 66.6091C306.112 65.1965 305.945 63.7016 306.089 62.2204ZM322.754 62.2204C322.754 57.34 320.561 54.486 316.714 54.486C312.851 54.486 310.679 57.34 310.679 62.2204C310.679 67.1399 312.852 69.9719 316.714 69.9719C320.561 69.9718 322.754 67.1203 322.754 62.2204H322.754Z" fill="white"/>
<path d="M332.004 67.1279C332.004 63.0752 335.022 60.7388 340.378 60.4067L346.477 60.0552V58.1118C346.477 55.7339 344.905 54.3911 341.868 54.3911C339.387 54.3911 337.669 55.3018 337.175 56.8936H332.874C333.328 53.0264 336.965 50.5459 342.073 50.5459C347.717 50.5459 350.901 53.3559 350.901 58.1118V73.4951H346.624V70.3311H346.272C345.558 71.466 344.556 72.3913 343.368 73.0123C342.18 73.6334 340.849 73.928 339.509 73.8661C338.564 73.9644 337.609 73.8635 336.705 73.57C335.801 73.2765 334.969 72.7969 334.262 72.1621C333.555 71.5272 332.989 70.7512 332.6 69.8842C332.211 69.0171 332.008 68.0782 332.004 67.1279ZM346.477 65.2041V63.3218L340.979 63.6733C337.878 63.8808 336.472 64.9355 336.472 66.9204C336.472 68.9467 338.23 70.1259 340.647 70.1259C341.355 70.1976 342.071 70.1261 342.751 69.9156C343.431 69.7052 344.062 69.3601 344.606 68.9009C345.149 68.4417 345.595 67.8777 345.917 67.2427C346.238 66.6076 346.429 65.9143 346.477 65.2041Z" fill="white"/>
<path d="M356.741 62.2242C356.741 55.1099 360.398 50.6031 366.086 50.6031C367.494 50.5383 368.89 50.8753 370.113 51.5748C371.335 52.2742 372.334 53.3073 372.991 54.5531H373.323V42.1875H377.766V73.4912H373.508V69.934H373.157C372.449 71.1715 371.416 72.1917 370.169 72.8841C368.923 73.5765 367.511 73.9148 366.086 73.8622C360.359 73.8625 356.741 69.3555 356.741 62.2242ZM361.331 62.2242C361.331 66.9996 363.582 69.8731 367.346 69.8731C371.091 69.8731 373.406 66.9581 373.406 62.2437C373.406 57.5513 371.067 54.5948 367.346 54.5948C363.606 54.5948 361.331 57.4878 361.331 62.2242H361.331Z" fill="white"/>
<path d="M396.15 62.2278C396.008 60.7482 396.178 59.2554 396.647 57.845C397.116 56.4347 397.875 55.138 398.874 54.038C399.874 52.9381 401.093 52.0593 402.452 51.4579C403.811 50.8565 405.281 50.5459 406.768 50.5459C408.254 50.5459 409.724 50.8565 411.083 51.4579C412.442 52.0593 413.661 52.9381 414.661 54.038C415.66 55.138 416.419 56.4347 416.888 57.845C417.357 59.2554 417.527 60.7482 417.385 62.2278C417.529 63.7089 417.362 65.2038 416.894 66.6164C416.426 68.0291 415.668 69.3281 414.668 70.4302C413.668 71.5323 412.449 72.413 411.088 73.0156C409.727 73.6183 408.256 73.9297 406.768 73.9297C405.279 73.9297 403.808 73.6183 402.447 73.0156C401.086 72.413 399.867 71.5323 398.867 70.4302C397.867 69.3281 397.109 68.0291 396.641 66.6164C396.173 65.2038 396.006 63.7089 396.15 62.2278ZM412.815 62.2278C412.815 57.3474 410.622 54.4934 406.775 54.4934C402.913 54.4934 400.74 57.3474 400.74 62.2278C400.74 67.1473 402.913 69.9793 406.775 69.9793C410.622 69.9792 412.815 67.1277 412.815 62.2278Z" fill="white"/>
<path d="M423.347 50.9743H427.625V54.551H427.957C428.52 53.2664 429.47 52.1895 430.674 51.4705C431.879 50.7515 433.277 50.4261 434.675 50.5397C435.771 50.4574 436.871 50.6226 437.894 51.023C438.917 51.4235 439.837 52.049 440.585 52.8533C441.333 53.6575 441.891 54.6198 442.217 55.6689C442.543 56.718 442.629 57.827 442.468 58.9137V73.4887H438.025V60.0295C438.025 56.4114 436.453 54.612 433.167 54.612C432.423 54.5774 431.68 54.704 430.99 54.9831C430.3 55.2623 429.678 55.6874 429.167 56.2293C428.657 56.7713 428.269 57.4172 428.032 58.1228C427.794 58.8285 427.712 59.5772 427.791 60.3176V73.489H423.347V50.9743Z" fill="white"/>
<path d="M467.576 45.3711V51.0791H472.454V54.8218H467.576V66.3989C467.576 68.7573 468.547 69.79 470.759 69.79C471.326 69.7882 471.891 69.754 472.454 69.6875V73.3886C471.656 73.5314 470.847 73.6073 470.037 73.6157C465.095 73.6157 463.127 71.8774 463.127 67.5366V54.8216H459.553V51.0789H463.127V45.3711H467.576Z" fill="white"/>
<path d="M478.523 42.1875H482.927V54.5947H483.279C483.869 53.2981 484.846 52.2152 486.074 51.4935C487.303 50.7717 488.724 50.4463 490.144 50.5615C491.234 50.5022 492.323 50.6842 493.334 51.0944C494.346 51.5046 495.254 52.133 495.995 52.9347C496.735 53.7364 497.29 54.6916 497.619 55.7323C497.948 56.773 498.043 57.8734 497.898 58.9551V73.4912H493.45V60.0512C493.45 56.455 491.775 54.6337 488.635 54.6337C487.872 54.5711 487.104 54.6761 486.385 54.9414C485.666 55.2066 485.014 55.6258 484.474 56.1695C483.934 56.7132 483.519 57.3683 483.259 58.0889C482.998 58.8096 482.899 59.5785 482.967 60.3417V73.4911H478.523L478.523 42.1875Z" fill="white"/>
<path d="M523.806 67.4086C523.202 69.4663 521.894 71.2462 520.111 72.4369C518.327 73.6277 516.182 74.1534 514.05 73.9222C512.567 73.9614 511.093 73.6773 509.73 73.0896C508.368 72.502 507.149 71.6249 506.16 70.5192C505.17 69.4135 504.433 68.1057 504 66.6866C503.566 65.2675 503.447 63.7711 503.65 62.3012C503.452 60.8267 503.574 59.3271 504.006 57.9037C504.439 56.4804 505.172 55.1665 506.156 54.0511C507.141 52.9358 508.353 52.0449 509.712 51.4389C511.07 50.8328 512.543 50.5258 514.031 50.5385C520.295 50.5385 524.075 54.8185 524.075 61.8885V63.4389H508.176V63.6879C508.106 64.5141 508.21 65.3458 508.481 66.1295C508.752 66.9133 509.183 67.6318 509.748 68.2391C510.312 68.8464 510.997 69.329 511.759 69.656C512.521 69.983 513.343 70.1471 514.172 70.1379C515.235 70.2655 516.312 70.0741 517.266 69.5881C518.219 69.1021 519.007 68.3433 519.529 67.4084L523.806 67.4086ZM508.176 60.1527H519.548C519.604 59.3971 519.501 58.6381 519.247 57.9245C518.992 57.2109 518.591 56.5585 518.069 56.0092C517.547 55.4599 516.916 55.0259 516.216 54.735C515.516 54.4441 514.764 54.3028 514.006 54.3202C513.238 54.3106 512.475 54.4548 511.763 54.7446C511.051 55.0343 510.405 55.4636 509.861 56.0072C509.318 56.5507 508.889 57.1976 508.599 57.9095C508.31 58.6215 508.166 59.3842 508.176 60.1527H508.176Z" fill="white"/>
</g>
<defs>
<clipPath id="clip0_3_106456">
<rect width="598.32" height="200" fill="white"/>
</clipPath>
</defs>
</svg>
