<svg width="670" height="200" viewBox="0 0 670 200" fill="none" xmlns="http://www.w3.org/2000/svg">
<g clip-path="url(#clip0_2013_1336)">
<path d="M645.275 199H24.9047C11.2565 199 0.0898438 187.806 0.0898438 174.125V24.875C0.0898438 11.1937 11.2565 -9.53674e-07 24.9047 -9.53674e-07H645.275C658.923 -9.53674e-07 670.09 11.1937 670.09 24.875V174.125C670.09 187.806 658.923 199 645.275 199Z" fill="#100F0D"/>
<path d="M645.275 -9.53674e-07H24.9047C11.2565 -9.53674e-07 0.0898438 11.1937 0.0898438 24.875V174.125C0.0898438 187.806 11.2565 199 24.9047 199H645.275C658.923 199 670.09 187.806 670.09 174.125V24.875C670.09 11.1937 658.923 -9.53674e-07 645.275 -9.53674e-07ZM645.275 3.97801C656.769 3.97801 666.119 13.3529 666.119 24.875V174.125C666.119 185.647 656.769 195.022 645.275 195.022H24.9047C13.4103 195.022 4.06215 185.647 4.06215 174.125V24.875C4.06215 13.3529 13.4103 3.97801 24.9047 3.97801H645.275Z" fill="#A2A2A1"/>
<path d="M103.158 96.6351L50.1914 152.853C50.1934 152.864 50.1974 152.874 50.1994 152.886C51.8237 158.99 57.3992 163.485 64.0164 163.485C66.6616 163.485 69.1452 162.77 71.275 161.514L71.4441 161.415L131.065 127.012L103.158 96.6351" fill="#EB3131"/>
<path d="M156.744 87.0621L156.694 87.0273L130.954 72.1057L101.955 97.9101L131.055 127.006L156.659 112.233C161.148 109.809 164.195 105.077 164.195 99.62C164.195 94.2022 161.188 89.4934 156.744 87.0621" fill="#F6B60B"/>
<path d="M50.1894 46.1541C49.871 47.3282 49.7036 48.558 49.7036 49.8351V149.174C49.7036 150.449 49.869 151.683 50.1914 152.853L104.981 98.0732L50.1894 46.1541Z" fill="#5778C5"/>
<path d="M103.548 99.5039L130.964 72.0966L71.4108 37.5691C69.2462 36.2726 66.7199 35.5244 64.0165 35.5244C57.3992 35.5244 51.8163 40.0273 50.1914 46.1391C50.1895 46.145 50.1895 46.149 50.1895 46.1545L103.548 99.5039Z" fill="#3BAD49"/>
<path d="M236.41 51.4592C236.41 55.6274 235.176 58.9468 232.703 61.4229C229.895 64.3672 226.236 65.8403 221.737 65.8403C217.428 65.8403 213.765 64.3478 210.753 61.3587C207.735 58.3717 206.229 54.6677 206.229 50.2483C206.229 45.8269 207.735 42.1249 210.753 39.1358C213.765 36.1488 217.428 34.6543 221.737 34.6543C223.875 34.6543 225.921 35.0722 227.865 35.906C229.808 36.7418 231.367 37.8513 232.533 39.2408L229.909 41.8662C227.933 39.505 225.212 38.3254 221.737 38.3254C218.594 38.3254 215.878 39.4294 213.584 41.6388C211.291 43.8508 210.145 46.7189 210.145 50.2483C210.145 53.7776 211.291 56.6458 213.584 58.8577C215.878 61.0672 218.594 62.1712 221.737 62.1712C225.07 62.1712 227.849 61.0612 230.074 58.8383C231.518 57.3901 232.354 55.3771 232.577 52.7921H221.737V49.2065H236.202C236.342 49.9861 236.41 50.7344 236.41 51.4592" fill="white"/>
<path d="M236.41 51.4598H235.913C235.909 55.5329 234.719 58.6966 232.352 61.0717L232.346 61.0757L232.344 61.0797C229.625 63.9224 226.131 65.3374 221.737 65.3433C217.543 65.3374 214.033 63.907 211.103 61.0075C208.178 58.1021 206.732 54.5553 206.726 50.2488C206.732 45.9404 208.178 42.3956 211.103 39.4921C214.033 36.5906 217.543 35.1583 221.737 35.1523C223.811 35.1523 225.785 35.5568 227.668 36.3632C229.553 37.1757 231.042 38.2404 232.152 39.5623L232.533 39.2414L232.181 38.8896L229.557 41.517L229.909 41.8667L230.292 41.5483C228.224 39.0702 225.321 37.821 221.737 37.8284C218.478 37.8244 215.612 38.9886 213.24 41.2822C210.846 43.5831 209.643 46.6125 209.647 50.2488C209.643 53.8851 210.846 56.9145 213.24 59.2155C215.612 61.509 218.478 62.6732 221.737 62.6692C225.181 62.6752 228.116 61.507 230.426 59.1906C231.969 57.6433 232.844 55.5001 233.073 52.8354L233.12 52.2951H222.234V49.7045H236.202V49.207L235.712 49.2946C235.848 50.0488 235.913 50.7657 235.913 51.4598H236.41H236.908C236.908 50.7035 236.837 49.9264 236.692 49.118L236.618 48.7095H221.239V52.7926V53.2901H232.577V52.7926L232.082 52.7498C231.862 55.2533 231.065 57.1384 229.722 58.4871C227.585 60.617 224.961 61.6682 221.737 61.6742C218.711 61.6702 216.144 60.6284 213.93 58.5006C211.738 56.3802 210.648 53.6732 210.642 50.2488C210.648 46.8244 211.738 44.1175 213.93 41.9971C216.144 39.8692 218.711 38.8274 221.737 38.8235C225.101 38.8314 227.641 39.9429 229.528 42.1876L229.878 42.6035L232.885 39.5931L233.207 39.2707L232.914 38.9225C231.691 37.4652 230.063 36.3085 228.061 35.4498C226.055 34.5886 223.939 34.1573 221.737 34.1573C217.314 34.1533 213.497 35.708 210.401 38.7846C207.294 41.8553 205.727 45.715 205.731 50.2488C205.727 54.7807 207.294 58.6424 210.403 61.715C213.497 64.7896 217.314 66.3424 221.737 66.3384C226.343 66.3424 230.164 64.8125 233.063 61.7672L232.704 61.4234L233.055 61.7752C235.632 59.2001 236.911 55.7215 236.908 51.4598H236.41Z" fill="white"/>
<path d="M259.342 38.9907H245.748V48.4554H258.007V52.0425H245.748V61.5071H259.342V65.1743H241.915V35.3236H259.342V38.9907Z" fill="white"/>
<path d="M259.342 38.9908V38.4933H245.25V48.953H257.51V51.5435L245.25 51.545V62.0047H258.844V64.6769H242.413V35.8211H258.844V38.9908H259.342V38.4933V38.9908H259.839V35.3236V34.8261H241.418V65.6719H259.839V61.5072V61.0097H246.245V52.54H258.505V48.4555V47.9579H246.245V39.4883H259.839V38.9908H259.342" fill="white"/>
<path d="M275.517 65.1743H271.679V38.9907H263.341V35.3236H283.854V38.9907H275.517V65.1743Z" fill="white"/>
<path d="M275.517 65.1744V64.6769H272.176V38.4933H263.839V35.8211H283.357V38.4933H275.019V65.1744H275.517V64.6769V65.1744H276.014V39.4883H284.352V35.3236V34.8261H262.844V38.9908V39.4883H271.181V65.6719H275.517H276.014V65.1744H275.517" fill="white"/>
<path d="M298.696 65.1743V35.3236H302.53V65.1743H298.696Z" fill="white"/>
<path d="M298.696 65.1744H299.194V35.8211H302.033V64.6769H298.696V65.1744H299.194H298.696V65.6719H302.53H303.028V34.8261H298.696H298.198V65.6719H298.696V65.1744Z" fill="white"/>
<path d="M319.545 65.1743H315.706V38.9907H307.37V35.3236H327.882V38.9907H319.545V65.1743Z" fill="white"/>
<path d="M319.545 65.1744V64.6769H316.204V38.4933H307.867V35.8211H327.384V38.4933H319.047V65.1744H319.545V64.6769V65.1744H320.042V39.4883H328.38V35.3236V34.8261H306.872V38.9908V39.4883H315.209V65.6719H319.545H320.042V65.1744H319.545" fill="white"/>
<path d="M347.658 58.8169C349.868 61.0538 352.571 62.1712 355.768 62.1712C358.965 62.1712 361.67 61.0538 363.876 58.8169C366.088 56.5801 367.196 53.7209 367.196 50.2483C367.196 46.7756 366.088 43.9164 363.876 41.6796C361.67 39.4428 358.965 38.3254 355.768 38.3254C352.571 38.3254 349.868 39.4428 347.658 41.6796C345.452 43.9164 344.345 46.7756 344.345 50.2483C344.345 53.7209 345.452 56.5801 347.658 58.8169ZM366.713 61.316C363.779 64.3339 360.129 65.8403 355.768 65.8403C351.403 65.8403 347.755 64.3339 344.827 61.316C341.89 58.3015 340.429 54.6115 340.429 50.2483C340.429 45.8851 341.89 42.1946 344.827 39.1806C347.755 36.1622 351.403 34.6543 355.768 34.6543C360.106 34.6543 363.746 36.1702 366.694 39.2C369.638 42.2299 371.111 45.9125 371.111 50.2483C371.111 54.6115 369.642 58.3015 366.713 61.316Z" fill="white"/>
<path d="M347.658 58.8175L347.304 59.1672C349.596 61.4936 352.455 62.6752 355.768 62.6692C359.079 62.6752 361.942 61.4936 364.23 59.1672C366.536 56.8389 367.696 53.8264 367.693 50.2488C367.696 46.6712 366.536 43.6588 364.23 41.3304C361.942 39.004 359.079 37.8225 355.768 37.8284C352.455 37.8225 349.596 39.004 347.304 41.3304C345.003 43.6588 343.841 46.6712 343.847 50.2488C343.841 53.8264 345.003 56.8389 347.304 59.1672L347.658 58.8175L348.012 58.4677C345.901 56.32 344.846 53.6185 344.842 50.2488C344.846 46.8792 345.901 44.1777 348.012 42.0299C350.142 39.8827 352.685 38.8294 355.768 38.8234C358.848 38.8294 361.398 39.8827 363.522 42.0299C365.637 44.1777 366.692 46.8792 366.696 50.2488C366.692 53.6185 365.637 56.32 363.522 58.4677C361.398 60.615 358.848 61.6682 355.768 61.6742C352.685 61.6682 350.142 60.615 348.012 58.4677L347.658 58.8175ZM366.713 61.3165L366.358 60.9707C363.505 63.8936 360.016 65.3374 355.768 65.3433C351.518 65.3374 348.029 63.8936 345.182 60.9707L345.168 60.9553L345.182 60.9707C342.335 58.0379 340.93 54.5011 340.926 50.2488C340.93 45.9966 342.335 42.4598 345.182 39.5269C348.029 36.604 351.518 35.1583 355.768 35.1523C359.989 35.1583 363.469 36.61 366.338 39.5483C369.195 42.4946 370.608 46.0259 370.614 50.2488C370.608 54.5011 369.199 58.0379 366.358 60.9707L366.713 61.3165L367.071 61.6623C370.087 58.5647 371.612 54.7225 371.609 50.2488C371.612 45.8006 370.081 41.9662 367.051 38.8548C364.02 35.7314 360.222 34.1518 355.768 34.1573C351.29 34.1518 347.481 35.7239 344.469 38.8354V38.8334C341.447 41.9329 339.927 45.7752 339.931 50.2488C339.927 54.7225 341.447 58.5647 344.469 61.6642L344.482 61.6782L344.469 61.6623C347.481 64.7737 351.29 66.3424 355.768 66.3384C360.244 66.3424 364.053 64.7737 367.071 61.6623L366.713 61.3165" fill="white"/>
<path d="M376.495 65.1743V35.3236H381.163L395.67 58.5455H395.835L395.67 52.7927V35.3236H399.509V65.1743H395.505L380.327 40.827H380.162L380.327 46.5818V65.1743H376.495Z" fill="white"/>
<path d="M376.495 65.1744H376.992V35.8211H380.887L395.394 59.043H395.835H396.346L396.168 52.7853V35.8211H399.011V64.6769H395.781L380.603 40.3296H380.162H379.651L379.829 46.5898V64.6769H376.495V65.1744H376.992H376.495V65.6719H380.327H380.824V46.5739L380.659 40.8137L380.162 40.8271V41.3246H380.327V40.8271L379.905 41.0918L395.229 65.6719H399.508H400.006V34.8261H395.67H395.173V52.7987L395.338 58.5589L395.835 58.5455V58.048H395.67V58.5455L396.092 58.2813L381.438 34.8261H376.495H375.997V65.6719H376.495V65.1744Z" fill="white"/>
<path d="M532.517 149.751H541.801V87.5561H532.517V149.751ZM616.134 109.96L605.493 136.925H605.174L594.129 109.96H584.129L600.692 147.648L591.249 168.612H600.935L626.458 109.96H616.134ZM563.488 142.687C560.443 142.687 556.204 141.167 556.204 137.405C556.204 132.604 561.488 130.764 566.045 130.764C570.129 130.764 572.045 131.644 574.527 132.846C573.806 138.606 568.846 142.687 563.488 142.687V142.687ZM564.607 108.599C557.886 108.599 550.925 111.561 548.045 118.122L556.284 121.562C558.045 118.122 561.323 117.001 564.766 117.001C569.567 117.001 574.448 119.883 574.527 125.004V125.643C572.846 124.683 569.249 123.243 564.846 123.243C555.965 123.243 546.92 128.123 546.92 137.245C546.92 145.567 554.204 150.929 562.363 150.929C568.607 150.929 572.045 148.128 574.209 144.848H574.527V149.648H583.488V125.802C583.488 114.762 575.249 108.599 564.607 108.599V108.599ZM507.234 117.531H494.03V96.2124H507.234C514.174 96.2124 518.114 101.959 518.114 106.872C518.114 111.691 514.174 117.531 507.234 117.531ZM506.995 87.5561H484.751V149.751H494.03V126.187H506.995C517.284 126.187 527.398 118.738 527.398 106.872C527.398 95.0054 517.284 87.5561 506.995 87.5561ZM385.697 142.698C379.283 142.698 373.913 137.329 373.913 129.954C373.913 122.501 379.283 117.05 385.697 117.05C392.028 117.05 396.998 122.501 396.998 129.954C396.998 137.329 392.028 142.698 385.697 142.698V142.698ZM396.356 113.443H396.035C393.952 110.959 389.943 108.714 384.894 108.714C374.314 108.714 364.616 118.011 364.616 129.954C364.616 141.816 374.314 151.034 384.894 151.034C389.943 151.034 393.952 148.789 396.035 146.226H396.356V149.271C396.356 157.368 392.028 161.695 385.055 161.695C379.365 161.695 375.838 157.606 374.394 154.161L366.3 157.527C368.624 163.137 374.796 170.031 385.055 170.031C395.956 170.031 405.173 163.617 405.173 147.988V109.997H396.356V113.443ZM411.585 149.751H420.882V87.5541H411.585V149.751ZM434.589 129.233C434.348 121.057 440.92 116.89 445.649 116.89C449.338 116.89 452.463 118.732 453.502 121.38L434.589 129.233ZM463.443 122.18C461.682 117.45 456.308 108.714 445.328 108.714C434.427 108.714 425.371 117.29 425.371 129.874C425.371 141.737 434.348 151.034 446.37 151.034C456.07 151.034 461.682 145.102 464.005 141.657L456.791 136.847C454.388 140.374 451.1 142.698 446.37 142.698C441.641 142.698 438.276 140.534 436.11 136.287L464.403 124.584L463.443 122.18ZM238.029 115.207V124.183H259.509C258.868 129.233 257.185 132.919 254.619 135.484C251.494 138.611 246.605 142.057 238.029 142.057C224.803 142.057 214.465 131.397 214.465 118.173C214.465 104.948 224.803 94.2865 238.029 94.2865C245.163 94.2865 250.371 97.0925 254.219 100.699L260.551 94.3681C255.181 89.2372 248.047 85.3099 238.029 85.3099C219.914 85.3099 204.686 100.058 204.686 118.173C204.686 136.287 219.914 151.034 238.029 151.034C247.808 151.034 255.181 147.829 260.951 141.816C266.883 135.885 268.727 127.55 268.727 120.818C268.727 118.732 268.567 116.81 268.245 115.207H238.029ZM293.148 142.698C286.734 142.698 281.203 137.408 281.203 129.874C281.203 122.26 286.734 117.05 293.148 117.05C299.559 117.05 305.09 122.26 305.09 129.874C305.09 137.408 299.559 142.698 293.148 142.698V142.698ZM293.148 108.714C281.444 108.714 271.906 117.611 271.906 129.874C271.906 142.057 281.444 151.034 293.148 151.034C304.849 151.034 314.387 142.057 314.387 129.874C314.387 117.611 304.849 108.714 293.148 108.714ZM339.482 142.698C333.071 142.698 327.54 137.408 327.54 129.874C327.54 122.26 333.071 117.05 339.482 117.05C345.894 117.05 351.424 122.26 351.424 129.874C351.424 137.408 345.894 142.698 339.482 142.698ZM339.482 108.714C327.779 108.714 318.243 117.611 318.243 129.874C318.243 142.057 327.779 151.034 339.482 151.034C351.184 151.034 360.722 142.057 360.722 129.874C360.722 117.611 351.184 108.714 339.482 108.714Z" fill="white"/>
</g>
<defs>
<clipPath id="clip0_2013_1336">
<rect width="670" height="200" fill="white"/>
</clipPath>
</defs>
</svg>
