<svg width="674" height="200" viewBox="0 0 674 200" fill="none" xmlns="http://www.w3.org/2000/svg">
<g clip-path="url(#clip0_330_2437)">
<g clip-path="url(#clip1_330_2437)">
<path d="M646.84 199H24.9648C11.2836 199 0.0898438 187.806 0.0898438 174.125V24.875C0.0898438 11.1938 11.2836 0 24.9648 0H646.84C660.521 0 671.715 11.1938 671.715 24.875V174.125C671.715 187.806 660.521 199 646.84 199Z" fill="#100F0D"/>
<path d="M646.84 0H24.9648C11.2836 0 0.0898438 11.1938 0.0898438 24.875V174.125C0.0898438 187.806 11.2836 199 24.9648 199H646.84C660.521 199 671.715 187.806 671.715 174.125V24.875C671.715 11.1938 660.521 0 646.84 0ZM646.84 3.97801C658.362 3.97801 667.735 13.3529 667.735 24.875V174.125C667.735 185.647 658.362 195.022 646.84 195.022H24.9648C13.4426 195.022 4.07179 185.647 4.07179 174.125V24.875C4.07179 13.3529 13.4426 3.97801 24.9648 3.97801H646.84Z" fill="#A2A2A1"/>
<path d="M103.158 96.6347L50.1914 152.852C50.1934 152.864 50.1974 152.874 50.1994 152.885C51.8237 158.989 57.3992 163.484 64.0164 163.484C66.6616 163.484 69.1452 162.769 71.275 161.514L71.4441 161.415L131.065 127.012L103.158 96.6347Z" fill="#EB3131"/>
<path d="M156.744 87.0621L156.694 87.0273L130.954 72.1057L101.955 97.9101L131.055 127.006L156.659 112.233C161.148 109.809 164.195 105.077 164.195 99.62C164.195 94.2022 161.188 89.4934 156.744 87.0621Z" fill="#F6B60B"/>
<path d="M50.1894 46.1531C49.871 47.3272 49.7036 48.5571 49.7036 49.8341V149.173C49.7036 150.448 49.869 151.682 50.1914 152.852L104.981 98.0722L50.1894 46.1531Z" fill="#5778C5"/>
<path d="M103.548 99.5039L130.964 72.0966L71.4108 37.5691C69.2462 36.2726 66.7199 35.5244 64.0165 35.5244C57.3992 35.5244 51.8163 40.0273 50.1914 46.1391C50.1895 46.145 50.1895 46.149 50.1895 46.1545L103.548 99.5039Z" fill="#3BAD49"/>
</g>
<path d="M236.41 51.4607C236.41 55.6289 235.176 58.9483 232.703 61.4244C229.895 64.3687 226.236 65.8418 221.737 65.8418C217.428 65.8418 213.765 64.3493 210.753 61.3602C207.735 58.3731 206.229 54.6692 206.229 50.2498C206.229 45.8284 207.735 42.1264 210.753 39.1373C213.765 36.1502 217.428 34.6557 221.737 34.6557C223.875 34.6557 225.921 35.0736 227.865 35.9075C229.808 36.7433 231.367 37.8527 232.533 39.2423L229.909 41.8677C227.933 39.5065 225.212 38.3269 221.737 38.3269C218.594 38.3269 215.878 39.4308 213.584 41.6403C211.291 43.8522 210.145 46.7204 210.145 50.2498C210.145 53.7791 211.291 56.6473 213.584 58.8592C215.878 61.0687 218.594 62.1726 221.737 62.1726C225.07 62.1726 227.849 61.0627 230.074 58.8398C231.518 57.3915 232.354 55.3786 232.577 52.7935H221.737V49.208H236.202C236.342 49.9876 236.41 50.7358 236.41 51.4607Z" fill="white"/>
<path d="M236.41 51.4593H235.913C235.909 55.5324 234.719 58.6961 232.352 61.0712L232.346 61.0752L232.344 61.0792C229.625 63.922 226.131 65.3369 221.737 65.3429C217.543 65.3369 214.033 63.9065 211.103 61.007C208.178 58.1016 206.732 54.5548 206.726 50.2483C206.732 45.9399 208.178 42.3951 211.103 39.4916C214.033 36.5901 217.543 35.1578 221.737 35.1518C223.811 35.1518 225.785 35.5563 227.668 36.3628C229.553 37.1752 231.042 38.2399 232.152 39.5618L232.533 39.2409L232.181 38.8891L229.557 41.5165L229.909 41.8662L230.292 41.5478C228.224 39.0697 225.321 37.8205 221.737 37.8279C218.478 37.824 215.612 38.9881 213.24 41.2817C210.846 43.5827 209.643 46.612 209.647 50.2483C209.643 53.8847 210.846 56.914 213.24 59.215C215.612 61.5085 218.478 62.6727 221.737 62.6687C225.181 62.6747 228.116 61.5065 230.426 59.1901C231.969 57.6429 232.844 55.4996 233.073 52.8349L233.12 52.2946H222.234V49.7041H236.202V49.2065L235.712 49.2941C235.848 50.0483 235.913 50.7652 235.913 51.4593H236.41H236.908C236.908 50.7031 236.837 49.9259 236.692 49.1175L236.618 48.709H221.239V52.7921V53.2896H232.577V52.7921L232.082 52.7493C231.862 55.2528 231.065 57.1379 229.722 58.4866C227.585 60.6165 224.961 61.6677 221.737 61.6737C218.711 61.6697 216.144 60.6279 213.93 58.5001C211.738 56.3797 210.648 53.6727 210.642 50.2483C210.648 46.824 211.738 44.117 213.93 41.9966C216.144 39.8687 218.711 38.8269 221.737 38.823C225.101 38.8309 227.641 39.9424 229.528 42.1871L229.878 42.6031L232.885 39.5926L233.207 39.2702L232.914 38.922C231.691 37.4648 230.063 36.308 228.061 35.4493C226.055 34.5881 223.939 34.1568 221.737 34.1568C217.314 34.1528 213.497 35.7075 210.401 38.7842C207.294 41.8548 205.727 45.7145 205.731 50.2483C205.727 54.7802 207.294 58.6419 210.403 61.7145C213.497 64.7891 217.314 66.3419 221.737 66.3379C226.343 66.3419 230.164 64.812 233.063 61.7667L232.704 61.423L233.055 61.7747C235.632 59.1996 236.911 55.721 236.908 51.4593H236.41Z" fill="white"/>
<path d="M259.342 38.9902H245.748V48.4549H258.007V52.042H245.748V61.5067H259.342V65.1738H241.915V35.3231H259.342V38.9902Z" fill="white"/>
<path d="M259.342 38.9908V38.4933H245.25V48.953H257.51V51.5435L245.25 51.545V62.0047H258.844V64.6769H242.413V35.8211H258.844V38.9908H259.342V38.4933V38.9908H259.839V35.3236V34.8261H241.418V65.6719H259.839V61.5072V61.0097H246.245V52.54H258.505V48.4555V47.9579H246.245V39.4883H259.839V38.9908H259.342Z" fill="white"/>
<path d="M275.517 65.1738H271.679V38.9902H263.341V35.3231H283.854V38.9902H275.517V65.1738Z" fill="white"/>
<path d="M275.517 65.1744V64.6769H272.176V38.4933H263.839V35.8211H283.357V38.4933H275.019V65.1744H275.517V64.6769V65.1744H276.014V39.4883H284.352V35.3236V34.8261H262.844V38.9908V39.4883H271.181V65.6719H275.517H276.014V65.1744H275.517Z" fill="white"/>
<path d="M298.696 65.1738V35.3231H302.53V65.1738H298.696Z" fill="white"/>
<path d="M298.696 65.1744H299.194V35.8211H302.033V64.6769H298.696V65.1744H299.194H298.696V65.6719H302.53H303.028V34.8261H298.696H298.198V65.6719H298.696V65.1744Z" fill="white"/>
<path d="M319.545 65.1738H315.706V38.9902H307.37V35.3231H327.882V38.9902H319.545V65.1738Z" fill="white"/>
<path d="M319.545 65.1744V64.6769H316.204V38.4933H307.867V35.8211H327.384V38.4933H319.047V65.1744H319.545V64.6769V65.1744H320.042V39.4883H328.38V35.3236V34.8261H306.872V38.9908V39.4883H315.209V65.6719H319.545H320.042V65.1744H319.545Z" fill="white"/>
<path d="M347.658 58.8184C349.868 61.0552 352.571 62.1726 355.768 62.1726C358.965 62.1726 361.67 61.0552 363.876 58.8184C366.088 56.5816 367.196 53.7224 367.196 50.2498C367.196 46.7771 366.088 43.9179 363.876 41.6811C361.67 39.4443 358.965 38.3269 355.768 38.3269C352.571 38.3269 349.868 39.4443 347.658 41.6811C345.452 43.9179 344.345 46.7771 344.345 50.2498C344.345 53.7224 345.452 56.5816 347.658 58.8184ZM366.713 61.3174C363.779 64.3353 360.129 65.8418 355.768 65.8418C351.403 65.8418 347.755 64.3353 344.827 61.3174C341.89 58.303 340.429 54.6129 340.429 50.2498C340.429 45.8866 341.89 42.196 344.827 39.1821C347.755 36.1637 351.403 34.6557 355.768 34.6557C360.106 34.6557 363.746 36.1716 366.694 39.2015C369.638 42.2313 371.111 45.9139 371.111 50.2498C371.111 54.6129 369.642 58.303 366.713 61.3174Z" fill="white"/>
<path d="M347.658 58.817L347.304 59.1667C349.596 61.4931 352.455 62.6747 355.768 62.6687C359.079 62.6747 361.942 61.4931 364.23 59.1667C366.536 56.8384 367.696 53.8259 367.693 50.2483C367.696 46.6707 366.536 43.6583 364.23 41.3299C361.942 39.0036 359.079 37.822 355.768 37.8279C352.455 37.822 349.596 39.0036 347.304 41.3299C345.003 43.6583 343.841 46.6707 343.847 50.2483C343.841 53.8259 345.003 56.8384 347.304 59.1667L347.658 58.817L348.012 58.4672C345.901 56.3195 344.846 53.618 344.842 50.2483C344.846 46.8787 345.901 44.1772 348.012 42.0294C350.142 39.8822 352.685 38.8289 355.768 38.823C358.848 38.8289 361.398 39.8822 363.522 42.0294C365.637 44.1772 366.692 46.8787 366.696 50.2483C366.692 53.618 365.637 56.3195 363.522 58.4672C361.398 60.6145 358.848 61.6677 355.768 61.6737C352.685 61.6677 350.142 60.6145 348.012 58.4672L347.658 58.817ZM366.713 61.316L366.358 60.9702C363.505 63.8931 360.016 65.3369 355.768 65.3429C351.518 65.3369 348.029 63.8931 345.182 60.9702L345.168 60.9548L345.182 60.9702C342.335 58.0374 340.93 54.5006 340.926 50.2483C340.93 45.9961 342.335 42.4593 345.182 39.5264C348.029 36.6036 351.518 35.1578 355.768 35.1518C359.989 35.1578 363.469 36.6095 366.338 39.5478C369.195 42.4941 370.608 46.0254 370.614 50.2483C370.608 54.5006 369.199 58.0374 366.358 60.9702L366.713 61.316L367.071 61.6618C370.087 58.5643 371.612 54.722 371.609 50.2483C371.612 45.8001 370.081 41.9657 367.051 38.8543C364.02 35.7309 360.222 34.1513 355.768 34.1568C351.29 34.1513 347.481 35.7235 344.469 38.8349V38.8329C341.447 41.9324 339.927 45.7747 339.931 50.2483C339.927 54.722 341.447 58.5643 344.469 61.6638L344.482 61.6777L344.469 61.6618C347.481 64.7732 351.29 66.3419 355.768 66.3379C360.244 66.3419 364.053 64.7732 367.071 61.6618L366.713 61.316Z" fill="white"/>
<path d="M376.495 65.1738V35.3231H381.163L395.67 58.545H395.835L395.67 52.7922V35.3231H399.509V65.1738H395.505L380.327 40.8266H380.162L380.327 46.5813V65.1738H376.495Z" fill="white"/>
<path d="M376.494 65.1744H376.992V35.8211H380.886L395.394 59.043H395.835H396.346L396.167 52.7853V35.8211H399.011V64.6769H395.781L380.603 40.3296H380.161H379.651L379.829 46.5898V64.6769H376.494V65.1744H376.992H376.494V65.6719H380.327H380.824V46.5739L380.659 40.8137L380.161 40.8271V41.3246H380.327V40.8271L379.905 41.0918L395.229 65.6719H399.508H400.006V34.8261H395.67H395.172V52.7987L395.338 58.5589L395.835 58.5455V58.048H395.67V58.5455L396.092 58.2813L381.438 34.8261H376.494H375.997V65.6719H376.494V65.1744Z" fill="white"/>
<path d="M532.517 149.752H541.801V87.5566H532.517V149.752ZM616.134 109.961L605.493 136.925H605.174L594.129 109.961H584.129L600.692 147.649L591.249 168.612H600.935L626.458 109.961H616.134ZM563.488 142.687C560.443 142.687 556.204 141.168 556.204 137.405C556.204 132.605 561.488 130.765 566.045 130.765C570.129 130.765 572.045 131.645 574.527 132.846C573.806 138.606 568.846 142.687 563.488 142.687ZM564.607 108.6C557.886 108.6 550.925 111.562 548.045 118.123L556.284 121.563C558.045 118.123 561.323 117.001 564.766 117.001C569.567 117.001 574.448 119.883 574.527 125.004V125.644C572.846 124.683 569.249 123.244 564.846 123.244C555.965 123.244 546.92 128.123 546.92 137.246C546.92 145.568 554.204 150.929 562.363 150.929C568.607 150.929 572.045 148.129 574.209 144.849H574.527V149.649H583.488V125.803C583.488 114.763 575.249 108.6 564.607 108.6ZM507.234 117.532H494.03V96.2128H507.234C514.174 96.2128 518.114 101.959 518.114 106.872C518.114 111.692 514.174 117.532 507.234 117.532ZM506.995 87.5566H484.751V149.752H494.03V126.188H506.995C517.284 126.188 527.398 118.739 527.398 106.872C527.398 95.0059 517.284 87.5566 506.995 87.5566ZM385.697 142.699C379.283 142.699 373.913 137.329 373.913 129.954C373.913 122.501 379.283 117.05 385.697 117.05C392.028 117.05 396.998 122.501 396.998 129.954C396.998 137.329 392.028 142.699 385.697 142.699ZM396.356 113.443H396.035C393.952 110.959 389.943 108.715 384.894 108.715C374.314 108.715 364.616 118.012 364.616 129.954C364.616 141.817 374.314 151.034 384.894 151.034C389.943 151.034 393.952 148.789 396.035 146.226H396.356V149.272C396.356 157.368 392.028 161.696 385.055 161.696C379.365 161.696 375.838 157.607 374.394 154.161L366.3 157.527C368.624 163.138 374.796 170.031 385.055 170.031C395.956 170.031 405.173 163.618 405.173 147.989V109.997H396.356V113.443ZM411.585 149.752H420.882V87.5546H411.585V149.752ZM434.589 129.233C434.348 121.057 440.92 116.89 445.649 116.89C449.338 116.89 452.463 118.733 453.502 121.38L434.589 129.233ZM463.443 122.181C461.682 117.45 456.308 108.715 445.328 108.715C434.427 108.715 425.371 117.291 425.371 129.875C425.371 141.737 434.348 151.034 446.37 151.034C456.07 151.034 461.682 145.103 464.005 141.657L456.791 136.847C454.388 140.375 451.1 142.699 446.37 142.699C441.641 142.699 438.276 140.534 436.11 136.287L464.403 124.584L463.443 122.181ZM238.029 115.207V124.184H259.509C258.868 129.233 257.185 132.92 254.619 135.485C251.494 138.612 246.605 142.058 238.029 142.058C224.803 142.058 214.465 131.398 214.465 118.173C214.465 104.948 224.803 94.287 238.029 94.287C245.163 94.287 250.371 97.0929 254.219 100.7L260.551 94.3686C255.181 89.2377 248.047 85.3103 238.029 85.3103C219.914 85.3103 204.686 100.059 204.686 118.173C204.686 136.287 219.914 151.034 238.029 151.034C247.808 151.034 255.181 147.83 260.951 141.817C266.883 135.885 268.727 127.55 268.727 120.818C268.727 118.733 268.567 116.811 268.245 115.207H238.029ZM293.148 142.699C286.734 142.699 281.203 137.409 281.203 129.875C281.203 122.26 286.734 117.05 293.148 117.05C299.559 117.05 305.09 122.26 305.09 129.875C305.09 137.409 299.559 142.699 293.148 142.699ZM293.148 108.715C281.444 108.715 271.906 117.611 271.906 129.875C271.906 142.058 281.444 151.034 293.148 151.034C304.849 151.034 314.387 142.058 314.387 129.875C314.387 117.611 304.849 108.715 293.148 108.715ZM339.482 142.699C333.071 142.699 327.54 137.409 327.54 129.875C327.54 122.26 333.071 117.05 339.482 117.05C345.894 117.05 351.424 122.26 351.424 129.875C351.424 137.409 345.894 142.699 339.482 142.699ZM339.482 108.715C327.779 108.715 318.243 117.611 318.243 129.875C318.243 142.058 327.779 151.034 339.482 151.034C351.184 151.034 360.722 142.058 360.722 129.875C360.722 117.611 351.184 108.715 339.482 108.715Z" fill="white"/>
</g>
<defs>
<clipPath id="clip0_330_2437">
<rect width="673.134" height="200" fill="white"/>
</clipPath>
<clipPath id="clip1_330_2437">
<rect width="673.134" height="200" fill="white" transform="translate(0.0898438)"/>
</clipPath>
</defs>
</svg>
