<svg width="112" height="156" viewBox="0 0 112 156" fill="none" xmlns="http://www.w3.org/2000/svg">
<path d="M111.081 30.5586L101.045 142.988L55.9326 155.495L10.9443 143.006L0.91864 30.5586H111.081Z" fill="#E44D26"/>
<path d="M56 145.935L92.4533 135.829L101.029 39.7524H56V145.935Z" fill="#F16529"/>
<path d="M36.4902 67.3351H56V53.5439H21.4182L21.7481 57.2438L25.1379 95.2487H56V81.4575H37.7507L36.4902 67.3351ZM39.5984 102.144H25.7542L27.6861 123.799L55.9365 131.641L56 131.623V117.275L55.9395 117.291L40.5804 113.143L39.5984 102.144Z" fill="#EBEBEB"/>
<path d="M11.168 0H18.1765V6.9243H24.5878V0H31.5967V20.9685H24.5882V13.9471H18.1769V20.9685H11.1684V0H11.168ZM40.8127 6.95367H34.6436V0H53.9954V6.95367H47.8225V20.9685H40.814V6.95367H40.8136H40.8127ZM57.0666 0H64.3743L68.8696 7.36779L73.3606 0H80.6714V20.9685H73.6914V10.5754L68.8696 18.0308H68.7487L63.9239 10.5754V20.9685H57.0666V0ZM84.1592 0H91.1699V14.0377H101.026V20.9685H84.1588V0H84.1592Z" fill="black"/>
<path d="M55.9525 95.2487H72.9348L71.3336 113.135L55.952 117.286V131.634L84.2249 123.799L84.4321 121.469L87.6734 85.1608L88.0098 81.4575H55.9525V95.2487ZM55.9525 67.3014V67.3351H89.2647L89.5411 64.2355L90.1698 57.2438L90.4993 53.5439H55.9525V67.3019V67.3014Z" fill="white"/>
</svg>
