<svg width="512" height="512" viewBox="0 0 512 512" fill="none" xmlns="http://www.w3.org/2000/svg">
<g clip-path="url(#clip0_102_1537)">
<path d="M113.8 0C116.8 0 392.4 0 397.4 0C411.2 0 424.6 2.2 437.6 6.8C456.4 13.6 473.4 25.6 486.2 41.2C499.2 56.8 507.8 76 510.8 96C512 103.4 512.2 110.8 512.2 118.2C512.2 125 512.2 364.6 512.2 375.4C512.2 381.8 512.2 388.4 512.2 394.8C512.2 403.6 511.8 412.6 510 421.2C506 441 496.6 459.6 483 474.6C469.6 489.6 452 500.8 433 506.8C421.4 510.4 409.4 512 397.2 512C391.8 512 113 512 108.8 511.8C88.4 510.8 68.2 504.2 51.2 492.8C34.6 481.6 21 466 12.2 448C4.60004 432.6 0.800045 415.4 0.800045 398.2C0.800045 394.2 0.800045 117.8 0.800045 113.8C0.400045 96.8 4.00004 80 11.4 64.8C20 46.8 33.4 31 50 19.8C67 8.2 87 1.4 107.4 0.4C109.4 0 111.6 0 113.8 0Z" fill="url(#paint0_linear_102_1537)"/>
<path d="M432 418.8C430.2 416 428.2 413.2 426 410.6C421 404.6 415.2 399.4 408.8 395C400.8 389.6 391.4 386.2 381.8 385.8C375 385.4 368.2 386.6 361.8 389C355.4 391.2 349.2 394.4 343.2 397.6C336.2 401.2 329.2 404.8 321.8 407.8C313 411.4 303.8 414.2 294.4 416.2C282.6 418.4 270.6 419.2 258.8 419C237.4 418.6 216 415.4 195.6 409.4C177.6 404 160.4 396.6 144.2 387.2C130 379 116.8 369.6 104.4 359C94.2 350.2 84.8 340.8 76 330.8C70 323.8 64.2 316.4 58.8 308.8C56.6 305.8 54.6 302.6 52.8 299.4L0 242.4V113.4C0 50.8 50.6 0 113.2 0H214.2L289 76C457.8 190.8 403.2 317.4 403.2 317.4C403.2 317.4 451.2 371.4 432 418.8Z" fill="url(#paint1_linear_102_1537)"/>
<path d="M289.4 76C458.2 190.8 403.6 317.4 403.6 317.4C403.6 317.4 451.6 371.6 432.2 419C432.2 419 412.4 385.8 379.2 385.8C347.2 385.8 328.4 419 264 419C120.6 419 52.7998 299.2 52.7998 299.2C182 384.2 270.2 324 270.2 324C212 290.2 88.1998 128.6 88.1998 128.6C196 220.4 242.6 244.6 242.6 244.6C214.8 221.6 136.8 109.2 136.8 109.2C199.2 172.4 323.2 260.6 323.2 260.6C358.4 163 289.4 76 289.4 76Z" fill="white"/>
</g>
<defs>
<linearGradient id="paint0_linear_102_1537" x1="304.58" y1="-18.2696" x2="207.846" y2="530.333" gradientUnits="userSpaceOnUse">
<stop stop-color="#FAAE42"/>
<stop offset="1" stop-color="#EF3E31"/>
</linearGradient>
<linearGradient id="paint1_linear_102_1537" x1="261.223" y1="8.2726" x2="190.426" y2="409.785" gradientUnits="userSpaceOnUse">
<stop stop-color="#E39F3A"/>
<stop offset="1" stop-color="#D33929"/>
</linearGradient>
<clipPath id="clip0_102_1537">
<rect width="512" height="512" fill="white"/>
</clipPath>
</defs>
</svg>
